Coordinates
version=1
nRows=8
nColumns=33
inDegrees=yes

Units are S.I. units (second, meters, Newtons, ...)
Angles are in degrees.

endheader
time	ground_thorax_rot_x	ground_thorax_rot_y	ground_thorax_rot_z	ground_thorax_tx	ground_thorax_ty	ground_thorax_tz	clav_prot_r	clav_elev_r	scapula_abduction_r	scapula_elevation_r	scapula_upward_rot_r	scapula_winging_r	shoulder_elv_r	plane_of_elev_r	axial_rot_r	elbow_flexion_r	pro_sup_r	wrist_flex_r	wrist_dev_r	clav_prot_l	clav_elev_l	scapula_abduction_l	scapula_elevation_l	scapula_upward_rot_l	scapula_winging_l	shoulder_elv_l	plane_of_elev_l	axial_rot_l	elbow_flexion_l	pro_sup_l	wrist_flex_l	wrist_dev_l
      3.61000000	     34.40211156	      0.31151401	      6.46733762	    -44.90665841	    798.50864449	     10.75832673	     -5.50671829	     35.85559961	     45.00000000	     37.30678295	     38.88829042	  -4074.38021825	  -2101.82568457	     16.11216717	   -179.99999979	   1809.19843147	   -118.56443003	     14.03291845	     12.20910170	      8.07458192	    -45.00000000	    -45.00000000	     45.00000000	    -21.10985194	   3324.42877232	  -1370.31344388	     21.02948314	    -36.71076249	   2164.02558886	     18.69359345	     12.96031128	    -18.24858703
      3.62000000	     34.14489222	      0.55500425	      7.10326260	    -44.68048648	    797.42836263	     10.31179096	     -5.79111974	     34.83940153	     45.00000000	     36.30988701	     37.38107005	  -4073.36723910	  -2101.69275976	     16.15630984	   -179.99999979	   1809.08537072	   -117.63491926	     14.21409832	     11.73734455	      8.26639468	    -45.00000000	    -45.00000000	     45.00000000	    -21.26960357	   3324.86490117	  -1370.18617293	     20.87058655	    -36.60646224	   2163.95988018	     18.98873496	     12.80413971	    -18.43349708
      3.63000000	     34.39272284	      0.57572569	      7.03320528	    -44.77728812	    796.48088390	      9.79396664	     -4.86274809	     35.77057595	     45.00000000	     36.35169433	     35.90669214	  -4073.25971483	  -2102.27687870	     16.47734921	   -179.99999979	   1808.62823497	   -116.64233327	     14.39903606	     12.02307354	      8.18668635	    -45.00000000	    -45.00000000	     45.00000000	    -21.42117615	   3324.87336462	  -1370.35794667	     21.02042749	    -36.77358102	   2163.89834893	     19.32796736	     12.72394281	    -18.27714846
      3.64000000	     34.47508081	      0.70896401	      7.21549850	    -45.19638343	    795.65889494	      9.22867269	     -4.81057089	     35.34506182	     45.00000000	     36.01150646	     34.87604401	  -4072.65767514	  -2102.15095252	     16.43927352	   -179.99999979	   1808.27590449	   -115.29452898	     14.64519207	     11.68830727	      8.28721136	    -45.00000000	    -45.00000000	     45.00000000	    -21.65449157	   3324.99838829	  -1370.36508313	     21.00124315	    -36.72862563	   2163.89091831	     19.56942836	     12.69426226	    -18.43319694
      3.65000000	     34.54201386	      0.84482441	      7.48435716	    -45.93618921	    794.94700030	      8.63080595	     -4.57519091	     35.38752812	     45.00000000	     35.79628203	     34.21045814	  -4072.37158008	  -2102.00712779	     16.41435213	   -179.99999979	   1808.14643304	   -113.98699089	     14.55720383	     11.48129043	      8.24703050	    -45.00000000	    -45.00000000	     45.00000000	    -21.72460319	   3325.24695073	  -1370.48711697	     20.90262932	    -36.62989189	   2163.79294688	     19.69008880	     12.49212132	    -18.43194806
      3.66000000	     34.59665346	      0.78080947	      7.40464173	    -46.98976628	    794.33641351	      8.01878571	     -4.46257137	     35.54888245	     45.00000000	     35.62896040	     33.76874092	  -4072.33153537	  -2102.01284251	     16.55436779	   -179.99999979	   1808.02490626	   -112.70693839	     14.76277703	     11.50583077	      8.28484646	    -45.00000000	    -45.00000000	     45.00000000	    -21.78125662	   3325.40903804	  -1370.36755844	     20.98732593	    -36.62067106	   2163.76046572	     19.73611869	     12.44524594	    -18.46072481
      3.67000000	     34.79371074	      0.84632884	      7.47552912	    -48.35400087	    793.81394701	      7.40242633	     -4.34372422	     35.58027434	     45.00000000	     35.70028491	     33.42909190	  -4072.25342644	  -2101.89315294	     16.38160547	   -179.99999979	   1807.70399300	   -111.41603614	     14.59050771	     11.24997934	      8.23827912	    -45.00000000	    -45.00000000	     45.00000000	    -21.71425284	   3325.59383207	  -1370.55011428	     20.90517158	    -36.57622050	   2163.69086156	     19.70950953	     12.30212319	    -18.45062919
      3.68000000	     34.95309997	      0.74351944	      7.28008773	    -50.02279919	    793.37212405	      6.78977052	     -4.23511908	     35.79565947	     45.00000000	     35.69727508	     33.11004684	  -4072.34592620	  -2101.82458671	     16.61831123	   -179.99999979	   1807.71567901	   -110.06732131	     14.93981407	     11.45734513	      8.28156935	    -45.00000000	    -45.00000000	     45.00000000	    -22.00619994	   3325.62546161	  -1370.40881119	     20.97520529	    -36.69693212	   2163.75253381	     19.64295127	     12.34658458	    -18.50370461
